<?xml version="1.0" encoding="utf-8"?>
<!-- Generator: Adobe Illustrator 19.0.1, SVG Export Plug-In . SVG Version: 6.00 Build 0)  -->
<svg version="1.1" id="Layer_1" xmlns="http://www.w3.org/2000/svg" xmlns:xlink="http://www.w3.org/1999/xlink" x="0px" y="0px"
	 viewBox="-507 357 264 88" style="enable-background:new -507 357 264 88;" xml:space="preserve">
<style type="text/css">
	.st0{fill:none;stroke:#000000;stroke-width:1.5;}
</style>
<title>default-skin 2</title>
<path id="Shape" d="M-440,416.5v3.8c-6.3,0.8-9.2,5.8-10,9.7c2.2-2.8,5.6-5.1,10-5.1v3.6l6-5.9L-440,416.5z"/>
<g>
	<path id="Shape_1_" d="M-494,386v-5h2v3h3v2H-494z M-494,372h5v2h-3v3h-2V372z M-476,372v5h-2v-3h-3v-2H-476z M-476,386h-5v-2h3v-3
		h2V386z"/>
</g>
<g>
	<path d="M-445,381v5h-2v-3h-3v-2H-445z M-445,377h-5v-2h3v-3h2V377z M-437,377v-5h2v3h3v2H-437z M-437,381h5v2h-3v3h-2V381z"/>
</g>
<path d="M-486.4,423l-5.7-5.7l1.4-1.4l5.7,5.7l5.7-5.7l1.4,1.4l-5.7,5.7l5.7,5.7l-1.4,1.4l-5.7-5.7l-5.7,5.7l-1.4-1.4L-486.4,423z"
	/>
<path d="M-395.2,422l-1.8-1.5l3-3.5h-10v-2h10l-3-3.5l1.8-1.5l5.2,6L-395.2,422z"/>
<path d="M-354.8,422l1.8-1.5l-3-3.5h10v-2h-10l3-3.5l-1.8-1.5l-5.2,6L-354.8,422z"/>
<g>
	<path id="Rectangle-11" d="M-346,385.5l-3.2-3.2l-1.4,1.4l3.2,3.2L-346,385.5z"/>
	<path id="Oval-1" class="st0" d="M-354.5,384c3,0,5.5-2.5,5.5-5.5s-2.5-5.5-5.5-5.5s-5.5,2.5-5.5,5.5S-357.5,384-354.5,384z"/>
	<path d="M-357,378h5v1h-5V378z"/>
</g>
<g>
	<path d="M-390,385.5l-1.4,1.4l-3.2-3.2l1.4-1.4L-390,385.5z"/>
	<path class="st0" d="M-398.5,384c3,0,5.5-2.5,5.5-5.5s-2.5-5.5-5.5-5.5s-5.5,2.5-5.5,5.5S-401.5,384-398.5,384z"/>
	<path d="M-401,378h5v1h-5V378z"/>
	<path d="M-398,376l-0.1,5l-1,0l0.1-5L-398,376z"/>
</g>
</svg>
